<?xml version="1.0" encoding="iso-8859-1"?>
<!-- Generator: Adobe Illustrator 16.0.0, SVG Export Plug-In . SVG Version: 6.00 Build 0)  -->
<!DOCTYPE svg PUBLIC "-//W3C//DTD SVG 1.1//EN" "http://www.w3.org/Graphics/SVG/1.1/DTD/svg11.dtd">
<svg version="1.1" xmlns="http://www.w3.org/2000/svg" xmlns:xlink="http://www.w3.org/1999/xlink" x="0px" y="0px"
	 width="15.178px" height="26.803px" viewBox="0 0 15.178 26.803" style="enable-background:new 0 0 15.178 26.803;"
	 xml:space="preserve">
<g id="c61_iphone">
	<path style="fill:#000000;" d="M13.227,0H1.949C0.871,0,0,0.875,0,1.952v22.899c0,1.076,0.871,1.951,1.949,1.951h11.277
		c1.078,0,1.951-0.875,1.951-1.951V1.952C15.178,0.875,14.305,0,13.227,0z M4.805,1.186h5.568c0.141,0,0.254,0.21,0.254,0.471
		c0,0.26-0.113,0.471-0.254,0.471H4.805c-0.141,0-0.253-0.211-0.253-0.471C4.552,1.396,4.664,1.186,4.805,1.186z M7.589,24.875
		c-0.687,0-1.246-0.558-1.246-1.246c0-0.688,0.56-1.244,1.246-1.244c0.686,0,1.245,0.557,1.245,1.244
		C8.834,24.317,8.274,24.875,7.589,24.875z M13.716,20.607H1.462V3.294h12.254V20.607z"/>
</g>
<g id="Capa_1">
</g>
</svg>
