<?xml version="1.0" encoding="utf-8"?>
<!-- Generator: Adobe Illustrator 16.0.0, SVG Export Plug-In . SVG Version: 6.00 Build 0)  -->
<!DOCTYPE svg PUBLIC "-//W3C//DTD SVG 1.1//EN" "http://www.w3.org/Graphics/SVG/1.1/DTD/svg11.dtd">
<svg version="1.1" xmlns="http://www.w3.org/2000/svg" xmlns:xlink="http://www.w3.org/1999/xlink" x="0px" y="0px" width="600px"
	 height="600px" viewBox="0 0 600 600" enable-background="new 0 0 600 600" xml:space="preserve">
<g id="Layer_1">
	<g>
		<path fill="none" d="M300.821,540.842c-78.94,0-157.881-0.018-236.821,0.077c-2.739,0.003-3.277-0.538-3.276-3.277
			c0.084-157.88,0.084-315.761,0-473.641c-0.001-2.739,0.537-3.278,3.276-3.276c157.88,0.085,315.761,0.085,473.641,0
			c2.739-0.001,3.278,0.537,3.276,3.276c-0.085,157.88-0.085,315.761,0,473.641c0.002,2.739-0.537,3.28-3.276,3.277
			C458.701,540.824,379.762,540.842,300.821,540.842z M291.548,405.884c64.572,0.054,117.105-51.628,117.164-115.263
			c0.058-63.458-52.362-115.295-116.682-115.384c-64.965-0.089-117.519,51.462-117.539,115.296
			C174.472,354.167,226.899,405.831,291.548,405.884z M212.537,170.996c4.318-0.203,7.433-1.86,10.448-4.323
			c41.197-33.647,93.688-34.262,135.236-1.567c3.692,2.906,7.128,5.918,12.145,5.917
			C330.424,128.197,259.149,123.335,212.537,170.996z M214.644,412.219c22.131,21.653,55.445,35.866,90.973,30.998
			c24.616-3.374,45.437-14.352,63.137-31.501c-4.838-0.374-8.111,2.462-11.561,5.122c-18.429,14.209-39.104,22.51-62.535,23.18
			c-25.965,0.74-48.875-7.708-69.15-23.632C222.353,413.906,219.125,412.19,214.644,412.219z M169.308,215.372
			c-38.782,40.994-42.239,109.01,4.502,155.649c-2.655-5.803-4.663-10.754-7.954-15.115c-14.03-18.586-21.92-39.462-22.491-62.81
			c-0.589-24.101,6.735-45.849,20.667-65.419C166.461,224.265,167.796,220.473,169.308,215.372z M418.044,219.309
			c-2.023,4.382,0.37,7.221,2.37,10.149c26.095,38.227,25.993,84.824-0.418,122.692c-2.538,3.641-3.548,7.764-5.556,11.887
			c7.672-3.021,22.785-30.982,26.822-49.726C448.855,279.063,440.016,247.766,418.044,219.309z M289.876,116.728
			c-3.767-0.079-9.988,0.562-16.139,1.729c-9.173,1.738-18.053,4.445-26.43,8.637c-0.939,0.47-2.827,0.646-2.06,2.219
			c0.698,1.432,2.1,0.27,3.166-0.084c0.501-0.166,0.968-0.437,1.452-0.658c12.864-5.873,26.36-9.04,40.5-9.341
			c16.522-0.353,32.17,3.323,47.048,10.432c1.18,0.564,2.774,1.558,3.457,0.023c0.646-1.453-1.354-1.674-2.304-2.137
			C324,120.439,308.617,116.774,289.876,116.728z M246.275,453.168c23.885,14.761,74.868,14.563,91.876-0.103
			c-1.398,0-2.752-0.153-4.05,0.049c-1.022,0.159-1.972,0.767-2.961,1.157c-26.398,10.426-52.716,10.295-78.904-0.721
			C250.371,452.766,248.64,452.848,246.275,453.168z M124.935,328.26c1.555-2.468,1.591-2.48,0.902-4.52
			c-7.409-21.906-7.55-43.834-0.145-65.763c0.578-1.71,0.754-3.157-0.863-4.86C115.336,278.292,115.367,303.073,124.935,328.26z
			 M461.727,318.394c2.689-1.378,2.744-1.364,3.105-2.806c5.094-20.294,4.046-40.279-3.054-59.953
			c-0.432-1.196-0.655-3.068-2.471-2.271c-1.693,0.743-0.127,2.139,0.188,3.035c5,14.25,7.048,28.824,5.495,43.911
			C464.379,306.246,463.064,312.031,461.727,318.394z"/>
		<path fill-rule="evenodd" clip-rule="evenodd" fill="#038C78" d="M291.548,405.884c-64.648-0.053-117.076-51.717-117.056-115.351
			c0.02-63.833,52.574-115.385,117.539-115.296c64.319,0.089,116.739,51.926,116.682,115.384
			C408.653,354.256,356.12,405.938,291.548,405.884z"/>
		<path fill-rule="evenodd" clip-rule="evenodd" fill="#13917F" d="M212.537,170.996c46.612-47.66,117.887-42.799,157.829,0.027
			c-5.017,0.002-8.452-3.011-12.145-5.917c-41.548-32.695-94.039-32.081-135.236,1.567
			C219.969,169.135,216.855,170.792,212.537,170.996z"/>
		<path fill-rule="evenodd" clip-rule="evenodd" fill="#13917F" d="M214.644,412.219c4.48-0.028,7.708,1.688,10.865,4.167
			c20.274,15.924,43.185,24.372,69.15,23.632c23.431-0.67,44.106-8.971,62.535-23.18c3.449-2.66,6.723-5.496,11.561-5.122
			c-17.7,17.149-38.521,28.127-63.137,31.501C270.089,448.085,236.775,433.872,214.644,412.219z"/>
		<path fill-rule="evenodd" clip-rule="evenodd" fill="#13917F" d="M169.308,215.372c-1.511,5.101-2.847,8.894-5.275,12.304
			c-13.932,19.57-21.257,41.318-20.667,65.419c0.57,23.348,8.461,44.224,22.491,62.81c3.292,4.361,5.299,9.312,7.954,15.115
			C127.069,324.382,130.526,256.366,169.308,215.372z"/>
		<path fill-rule="evenodd" clip-rule="evenodd" fill="#13917F" d="M418.044,219.309c21.972,28.457,30.812,59.754,23.219,95.002
			c-4.037,18.743-19.15,46.705-26.822,49.726c2.008-4.123,3.018-8.246,5.556-11.887c26.411-37.868,26.513-84.466,0.418-122.692
			C418.414,226.53,416.021,223.691,418.044,219.309z"/>
		<path fill-rule="evenodd" clip-rule="evenodd" fill="#13917F" d="M289.876,116.728c18.741,0.047,34.124,3.711,48.69,10.82
			c0.949,0.463,2.949,0.685,2.304,2.137c-0.683,1.535-2.277,0.541-3.457-0.023c-14.878-7.109-30.525-10.785-47.048-10.432
			c-14.14,0.302-27.637,3.469-40.5,9.341c-0.484,0.221-0.95,0.492-1.452,0.658c-1.066,0.354-2.468,1.516-3.166,0.084
			c-0.767-1.574,1.121-1.75,2.06-2.219c8.377-4.192,17.257-6.899,26.43-8.637C279.889,117.29,286.109,116.649,289.876,116.728z"/>
		<path fill-rule="evenodd" clip-rule="evenodd" fill="#13917F" d="M246.275,453.168c2.365-0.32,4.096-0.402,5.962,0.383
			c26.188,11.016,52.505,11.146,78.904,0.721c0.989-0.391,1.938-0.998,2.961-1.157c1.298-0.202,2.651-0.049,4.05-0.049
			C321.143,467.731,270.16,467.929,246.275,453.168z"/>
		<path fill-rule="evenodd" clip-rule="evenodd" fill="#13917F" d="M124.935,328.26c-9.567-25.187-9.599-49.967-0.105-75.142
			c1.617,1.703,1.44,3.149,0.863,4.86c-7.406,21.928-7.265,43.856,0.145,65.763C126.526,325.779,126.489,325.792,124.935,328.26z"/>
		<path fill-rule="evenodd" clip-rule="evenodd" fill="#13917F" d="M461.727,318.394c1.338-6.362,2.652-12.147,3.264-18.084
			c1.553-15.087-0.495-29.661-5.495-43.911c-0.314-0.896-1.881-2.292-0.188-3.035c1.815-0.796,2.039,1.075,2.471,2.271
			c7.1,19.673,8.147,39.659,3.054,59.953C464.471,317.029,464.416,317.016,461.727,318.394z"/>
	</g>
</g>
<g id="Layer_2">
	<text transform="matrix(1 0 0 1 246.25 343.7148)" fill="#FDFFFF" font-family="'Optima-Bold'" font-size="187">S</text>
</g>
</svg>
